<mxfile host="drawio-plugin" modified="2021-11-22T19:49:27.968Z" agent="5.0 (X11; Linux x86_64) AppleWebKit/537.36 (KHTML, like Gecko) Chrome/89.0.4389.114 Safari/537.36" etag="oef95D72TYQqa6icrJ10" version="14.7.4" type="embed" pages="3"><diagram id="RUHIl7vS6TkhEus7O3xs" name="Topology"><mxGraphModel dx="1167" dy="629" grid="1" gridSize="10" guides="1" tooltips="1" connect="1" arrows="1" fold="1" page="1" pageScale="1" pageWidth="827" pageHeight="1169" math="0" shadow="0"><root><mxCell id="0"/><mxCell id="1" parent="0"/></root></mxGraphModel></diagram><diagram id="QuvptfywFUtiqhIwGxTH" name="sd-random_node_store"><mxGraphModel dx="1167" dy="629" grid="1" gridSize="10" guides="1" tooltips="1" connect="1" arrows="1" fold="1" page="1" pageScale="1" pageWidth="827" pageHeight="1169" math="0" shadow="0"><root><mxCell id="5nN7h4oFf1Rng68uDQK2-0"/><mxCell id="5nN7h4oFf1Rng68uDQK2-1" parent="5nN7h4oFf1Rng68uDQK2-0"/><mxCell id="5nN7h4oFf1Rng68uDQK2-2" value=":Lead Node" style="shape=umlLifeline;perimeter=lifelinePerimeter;whiteSpace=wrap;html=1;container=1;collapsible=0;recursiveResize=0;outlineConnect=0;" parent="5nN7h4oFf1Rng68uDQK2-1" vertex="1"><mxGeometry x="160" y="170" width="100" height="300" as="geometry"/></mxCell><mxCell id="5nN7h4oFf1Rng68uDQK2-3" value=":Random Storage Node" style="shape=umlLifeline;perimeter=lifelinePerimeter;whiteSpace=wrap;html=1;container=1;collapsible=0;recursiveResize=0;outlineConnect=0;" parent="5nN7h4oFf1Rng68uDQK2-1" vertex="1"><mxGeometry x="320" y="170" width="100" height="300" as="geometry"/></mxCell><mxCell id="5nN7h4oFf1Rng68uDQK2-4" value=":Storage Node x" style="shape=umlLifeline;perimeter=lifelinePerimeter;whiteSpace=wrap;html=1;container=1;collapsible=0;recursiveResize=0;outlineConnect=0;" parent="5nN7h4oFf1Rng68uDQK2-1" vertex="1"><mxGeometry x="470" y="170" width="100" height="300" as="geometry"/></mxCell><mxCell id="5nN7h4oFf1Rng68uDQK2-14" value="" style="endArrow=classic;html=1;rounded=0;" parent="5nN7h4oFf1Rng68uDQK2-4" target="5nN7h4oFf1Rng68uDQK2-4" edge="1"><mxGeometry width="50" height="50" relative="1" as="geometry"><mxPoint x="-100.00333333333322" y="180" as="sourcePoint"/><mxPoint x="59.83000000000004" y="180" as="targetPoint"/><Array as="points"><mxPoint x="-39.66999999999996" y="180"/></Array></mxGeometry></mxCell><mxCell id="5nN7h4oFf1Rng68uDQK2-15" value="Protobuf (ZMQ):&lt;br&gt;Store Data" style="edgeLabel;html=1;align=center;verticalAlign=middle;resizable=0;points=[];" parent="5nN7h4oFf1Rng68uDQK2-14" vertex="1" connectable="0"><mxGeometry x="-0.0062" y="3" relative="1" as="geometry"><mxPoint as="offset"/></mxGeometry></mxCell><mxCell id="5nN7h4oFf1Rng68uDQK2-5" value=":Storage Node y" style="shape=umlLifeline;perimeter=lifelinePerimeter;whiteSpace=wrap;html=1;container=1;collapsible=0;recursiveResize=0;outlineConnect=0;" parent="5nN7h4oFf1Rng68uDQK2-1" vertex="1"><mxGeometry x="630" y="170" width="100" height="300" as="geometry"/></mxCell><mxCell id="5nN7h4oFf1Rng68uDQK2-6" value="" style="endArrow=classic;html=1;rounded=0;" parent="5nN7h4oFf1Rng68uDQK2-1" target="5nN7h4oFf1Rng68uDQK2-2" edge="1"><mxGeometry width="50" height="50" relative="1" as="geometry"><mxPoint x="120" y="280" as="sourcePoint"/><mxPoint x="100" y="230" as="targetPoint"/></mxGeometry></mxCell><mxCell id="5nN7h4oFf1Rng68uDQK2-7" value="HTTP:&lt;br&gt;Store File" style="edgeLabel;html=1;align=center;verticalAlign=middle;resizable=0;points=[];" parent="5nN7h4oFf1Rng68uDQK2-6" vertex="1" connectable="0"><mxGeometry x="-0.3966" y="3" relative="1" as="geometry"><mxPoint x="13" y="-17" as="offset"/></mxGeometry></mxCell><mxCell id="5nN7h4oFf1Rng68uDQK2-8" value="" style="endArrow=classic;html=1;rounded=0;" parent="5nN7h4oFf1Rng68uDQK2-1" source="5nN7h4oFf1Rng68uDQK2-2" target="5nN7h4oFf1Rng68uDQK2-3" edge="1"><mxGeometry width="50" height="50" relative="1" as="geometry"><mxPoint x="270" y="350" as="sourcePoint"/><mxPoint x="320" y="300" as="targetPoint"/><Array as="points"><mxPoint x="270" y="300"/></Array></mxGeometry></mxCell><mxCell id="5nN7h4oFf1Rng68uDQK2-9" value="Protobuf:&lt;br&gt;Store File" style="edgeLabel;html=1;align=center;verticalAlign=middle;resizable=0;points=[];" parent="5nN7h4oFf1Rng68uDQK2-8" vertex="1" connectable="0"><mxGeometry x="-0.0062" y="3" relative="1" as="geometry"><mxPoint as="offset"/></mxGeometry></mxCell><mxCell id="5nN7h4oFf1Rng68uDQK2-11" value="" style="endArrow=classic;html=1;rounded=0;" parent="5nN7h4oFf1Rng68uDQK2-1" source="5nN7h4oFf1Rng68uDQK2-3" target="5nN7h4oFf1Rng68uDQK2-3" edge="1"><mxGeometry width="50" height="50" relative="1" as="geometry"><mxPoint x="410" y="440" as="sourcePoint"/><mxPoint x="460" y="390" as="targetPoint"/><Array as="points"><mxPoint x="410" y="310"/><mxPoint x="410" y="330"/></Array></mxGeometry></mxCell><mxCell id="5nN7h4oFf1Rng68uDQK2-13" value="Encode,&amp;nbsp;&lt;br&gt;Store Own Fragment" style="edgeLabel;html=1;align=center;verticalAlign=middle;resizable=0;points=[];" parent="5nN7h4oFf1Rng68uDQK2-11" vertex="1" connectable="0"><mxGeometry x="0.4205" y="1" relative="1" as="geometry"><mxPoint x="41" y="-41" as="offset"/></mxGeometry></mxCell><mxCell id="5nN7h4oFf1Rng68uDQK2-18" value="" style="endArrow=none;dashed=1;html=1;rounded=0;startArrow=classic;startFill=1;" parent="5nN7h4oFf1Rng68uDQK2-1" source="5nN7h4oFf1Rng68uDQK2-3" target="5nN7h4oFf1Rng68uDQK2-4" edge="1"><mxGeometry width="50" height="50" relative="1" as="geometry"><mxPoint x="420" y="300" as="sourcePoint"/><mxPoint x="470" y="250" as="targetPoint"/><Array as="points"><mxPoint x="440" y="380"/><mxPoint x="470" y="380"/><mxPoint x="500" y="380"/></Array></mxGeometry></mxCell><mxCell id="5nN7h4oFf1Rng68uDQK2-19" value=":OK" style="edgeLabel;html=1;align=center;verticalAlign=middle;resizable=0;points=[];" parent="5nN7h4oFf1Rng68uDQK2-18" vertex="1" connectable="0"><mxGeometry x="-0.4127" relative="1" as="geometry"><mxPoint x="26" as="offset"/></mxGeometry></mxCell><mxCell id="5nN7h4oFf1Rng68uDQK2-16" value="" style="endArrow=classic;html=1;rounded=0;" parent="5nN7h4oFf1Rng68uDQK2-1" source="5nN7h4oFf1Rng68uDQK2-3" target="5nN7h4oFf1Rng68uDQK2-5" edge="1"><mxGeometry width="50" height="50" relative="1" as="geometry"><mxPoint x="369.9966666666668" y="400" as="sourcePoint"/><mxPoint x="519.5" y="400" as="targetPoint"/><Array as="points"><mxPoint x="430" y="410"/><mxPoint x="450" y="410"/></Array></mxGeometry></mxCell><mxCell id="5nN7h4oFf1Rng68uDQK2-17" value="Protobuf(ZMQ):&lt;br&gt;Store Data" style="edgeLabel;html=1;align=center;verticalAlign=middle;resizable=0;points=[];" parent="5nN7h4oFf1Rng68uDQK2-16" vertex="1" connectable="0"><mxGeometry x="-0.0062" y="3" relative="1" as="geometry"><mxPoint y="-7" as="offset"/></mxGeometry></mxCell><mxCell id="5nN7h4oFf1Rng68uDQK2-20" value="" style="endArrow=none;dashed=1;html=1;rounded=0;startArrow=classic;startFill=1;" parent="5nN7h4oFf1Rng68uDQK2-1" target="5nN7h4oFf1Rng68uDQK2-5" edge="1"><mxGeometry width="50" height="50" relative="1" as="geometry"><mxPoint x="369.9966666666667" y="430" as="sourcePoint"/><mxPoint x="519.83" y="430" as="targetPoint"/><Array as="points"><mxPoint x="440.33" y="430"/><mxPoint x="500.33" y="430"/></Array></mxGeometry></mxCell><mxCell id="5nN7h4oFf1Rng68uDQK2-21" value=":OK" style="edgeLabel;html=1;align=center;verticalAlign=middle;resizable=0;points=[];" parent="5nN7h4oFf1Rng68uDQK2-20" vertex="1" connectable="0"><mxGeometry x="-0.4127" relative="1" as="geometry"><mxPoint x="26" as="offset"/></mxGeometry></mxCell><mxCell id="bhenU28IvhpwQMv_LpL9-4" value="" style="endArrow=none;dashed=1;html=1;rounded=0;startArrow=classic;startFill=1;" parent="5nN7h4oFf1Rng68uDQK2-1" source="5nN7h4oFf1Rng68uDQK2-2" target="5nN7h4oFf1Rng68uDQK2-3" edge="1"><mxGeometry width="50" height="50" relative="1" as="geometry"><mxPoint x="279.99666666666667" y="460" as="sourcePoint"/><mxPoint x="589.5000000000001" y="460" as="targetPoint"/><Array as="points"><mxPoint x="350.33" y="460"/></Array></mxGeometry></mxCell><mxCell id="bhenU28IvhpwQMv_LpL9-5" value=":OK" style="edgeLabel;html=1;align=center;verticalAlign=middle;resizable=0;points=[];" parent="bhenU28IvhpwQMv_LpL9-4" vertex="1" connectable="0"><mxGeometry x="-0.4127" relative="1" as="geometry"><mxPoint x="26" as="offset"/></mxGeometry></mxCell></root></mxGraphModel></diagram><diagram name="sd-random_node_read" id="W0xwfQ9pM3utQk1jlYUv"><mxGraphModel dx="1167" dy="629" grid="1" gridSize="10" guides="1" tooltips="1" connect="1" arrows="1" fold="1" page="1" pageScale="1" pageWidth="827" pageHeight="1169" math="0" shadow="0"><root><mxCell id="9qckJ_Rf14oFvcYH-R2Z-0"/><mxCell id="9qckJ_Rf14oFvcYH-R2Z-1" parent="9qckJ_Rf14oFvcYH-R2Z-0"/><mxCell id="9qckJ_Rf14oFvcYH-R2Z-2" value=":Lead Node" style="shape=umlLifeline;perimeter=lifelinePerimeter;whiteSpace=wrap;html=1;container=1;collapsible=0;recursiveResize=0;outlineConnect=0;" parent="9qckJ_Rf14oFvcYH-R2Z-1" vertex="1"><mxGeometry x="160" y="170" width="100" height="350" as="geometry"/></mxCell><mxCell id="9qckJ_Rf14oFvcYH-R2Z-3" value=":Random Storage Node" style="shape=umlLifeline;perimeter=lifelinePerimeter;whiteSpace=wrap;html=1;container=1;collapsible=0;recursiveResize=0;outlineConnect=0;" parent="9qckJ_Rf14oFvcYH-R2Z-1" vertex="1"><mxGeometry x="320" y="170" width="100" height="350" as="geometry"/></mxCell><mxCell id="McpQKe_cGmtXAKl3LMGu-0" value="" style="endArrow=none;dashed=1;html=1;rounded=0;startArrow=classic;startFill=1;" parent="9qckJ_Rf14oFvcYH-R2Z-3" edge="1"><mxGeometry width="50" height="50" relative="1" as="geometry"><mxPoint x="-110.00333333333333" y="299" as="sourcePoint"/><mxPoint x="50" y="299" as="targetPoint"/><Array as="points"><mxPoint x="20.329999999999984" y="299"/></Array></mxGeometry></mxCell><mxCell id="McpQKe_cGmtXAKl3LMGu-1" value=":file" style="edgeLabel;html=1;align=center;verticalAlign=middle;resizable=0;points=[];" parent="McpQKe_cGmtXAKl3LMGu-0" vertex="1" connectable="0"><mxGeometry x="-0.4127" relative="1" as="geometry"><mxPoint x="26" as="offset"/></mxGeometry></mxCell><mxCell id="9qckJ_Rf14oFvcYH-R2Z-4" value=":Storage Node x" style="shape=umlLifeline;perimeter=lifelinePerimeter;whiteSpace=wrap;html=1;container=1;collapsible=0;recursiveResize=0;outlineConnect=0;" parent="9qckJ_Rf14oFvcYH-R2Z-1" vertex="1"><mxGeometry x="470" y="170" width="100" height="350" as="geometry"/></mxCell><mxCell id="9qckJ_Rf14oFvcYH-R2Z-5" value="" style="endArrow=classic;html=1;rounded=0;" parent="9qckJ_Rf14oFvcYH-R2Z-4" edge="1"><mxGeometry width="50" height="50" relative="1" as="geometry"><mxPoint x="-100.00333333333322" y="148" as="sourcePoint"/><mxPoint x="49.5" y="148" as="targetPoint"/><Array as="points"><mxPoint x="-39.66999999999996" y="148"/></Array></mxGeometry></mxCell><mxCell id="9qckJ_Rf14oFvcYH-R2Z-6" value="Protobuf (ZMQ):&lt;br&gt;Get Fragment" style="edgeLabel;html=1;align=center;verticalAlign=middle;resizable=0;points=[];" parent="9qckJ_Rf14oFvcYH-R2Z-5" vertex="1" connectable="0"><mxGeometry x="-0.0062" y="3" relative="1" as="geometry"><mxPoint as="offset"/></mxGeometry></mxCell><mxCell id="9qckJ_Rf14oFvcYH-R2Z-7" value=":Storage Node y" style="shape=umlLifeline;perimeter=lifelinePerimeter;whiteSpace=wrap;html=1;container=1;collapsible=0;recursiveResize=0;outlineConnect=0;" parent="9qckJ_Rf14oFvcYH-R2Z-1" vertex="1"><mxGeometry x="630" y="170" width="100" height="350" as="geometry"/></mxCell><mxCell id="9qckJ_Rf14oFvcYH-R2Z-8" value="" style="endArrow=classic;html=1;rounded=0;" parent="9qckJ_Rf14oFvcYH-R2Z-1" target="9qckJ_Rf14oFvcYH-R2Z-2" edge="1"><mxGeometry width="50" height="50" relative="1" as="geometry"><mxPoint x="120" y="280" as="sourcePoint"/><mxPoint x="100" y="230" as="targetPoint"/></mxGeometry></mxCell><mxCell id="9qckJ_Rf14oFvcYH-R2Z-9" value="HTTP:&lt;br&gt;Read File" style="edgeLabel;html=1;align=center;verticalAlign=middle;resizable=0;points=[];" parent="9qckJ_Rf14oFvcYH-R2Z-8" vertex="1" connectable="0"><mxGeometry x="-0.3966" y="3" relative="1" as="geometry"><mxPoint x="13" y="-17" as="offset"/></mxGeometry></mxCell><mxCell id="9qckJ_Rf14oFvcYH-R2Z-10" value="" style="endArrow=classic;html=1;rounded=0;" parent="9qckJ_Rf14oFvcYH-R2Z-1" source="9qckJ_Rf14oFvcYH-R2Z-2" target="9qckJ_Rf14oFvcYH-R2Z-3" edge="1"><mxGeometry width="50" height="50" relative="1" as="geometry"><mxPoint x="270" y="350" as="sourcePoint"/><mxPoint x="320" y="300" as="targetPoint"/><Array as="points"><mxPoint x="270" y="300"/></Array></mxGeometry></mxCell><mxCell id="9qckJ_Rf14oFvcYH-R2Z-11" value="Protobuf:&lt;br&gt;Read File" style="edgeLabel;html=1;align=center;verticalAlign=middle;resizable=0;points=[];" parent="9qckJ_Rf14oFvcYH-R2Z-10" vertex="1" connectable="0"><mxGeometry x="-0.0062" y="3" relative="1" as="geometry"><mxPoint as="offset"/></mxGeometry></mxCell><mxCell id="9qckJ_Rf14oFvcYH-R2Z-14" value="" style="endArrow=none;dashed=1;html=1;rounded=0;startArrow=classic;startFill=1;" parent="9qckJ_Rf14oFvcYH-R2Z-1" edge="1"><mxGeometry width="50" height="50" relative="1" as="geometry"><mxPoint x="369.66666666666674" y="343" as="sourcePoint"/><mxPoint x="519.5" y="343" as="targetPoint"/><Array as="points"><mxPoint x="470" y="343"/><mxPoint x="500" y="343"/></Array></mxGeometry></mxCell><mxCell id="9qckJ_Rf14oFvcYH-R2Z-15" value=":fragment" style="edgeLabel;html=1;align=center;verticalAlign=middle;resizable=0;points=[];" parent="9qckJ_Rf14oFvcYH-R2Z-14" vertex="1" connectable="0"><mxGeometry x="-0.4127" relative="1" as="geometry"><mxPoint x="26" as="offset"/></mxGeometry></mxCell><mxCell id="9qckJ_Rf14oFvcYH-R2Z-16" value="" style="endArrow=classic;html=1;rounded=0;" parent="9qckJ_Rf14oFvcYH-R2Z-1" edge="1"><mxGeometry width="50" height="50" relative="1" as="geometry"><mxPoint x="369.66666666666674" y="371" as="sourcePoint"/><mxPoint x="679.5" y="371" as="targetPoint"/><Array as="points"><mxPoint x="430" y="371"/><mxPoint x="450" y="371"/></Array></mxGeometry></mxCell><mxCell id="9qckJ_Rf14oFvcYH-R2Z-17" value="Protobuf(ZMQ):&lt;br&gt;Get Fragment" style="edgeLabel;html=1;align=center;verticalAlign=middle;resizable=0;points=[];" parent="9qckJ_Rf14oFvcYH-R2Z-16" vertex="1" connectable="0"><mxGeometry x="-0.0062" y="3" relative="1" as="geometry"><mxPoint y="-7" as="offset"/></mxGeometry></mxCell><mxCell id="9qckJ_Rf14oFvcYH-R2Z-18" value="" style="endArrow=none;dashed=1;html=1;rounded=0;startArrow=classic;startFill=1;" parent="9qckJ_Rf14oFvcYH-R2Z-1" edge="1"><mxGeometry width="50" height="50" relative="1" as="geometry"><mxPoint x="369.9966666666667" y="391" as="sourcePoint"/><mxPoint x="679.5" y="391" as="targetPoint"/><Array as="points"><mxPoint x="440.33" y="391"/><mxPoint x="500.33" y="391"/></Array></mxGeometry></mxCell><mxCell id="9qckJ_Rf14oFvcYH-R2Z-19" value=":fragment" style="edgeLabel;html=1;align=center;verticalAlign=middle;resizable=0;points=[];" parent="9qckJ_Rf14oFvcYH-R2Z-18" vertex="1" connectable="0"><mxGeometry x="-0.4127" relative="1" as="geometry"><mxPoint x="26" as="offset"/></mxGeometry></mxCell><mxCell id="McpQKe_cGmtXAKl3LMGu-2" value="" style="endArrow=classic;html=1;rounded=0;" parent="9qckJ_Rf14oFvcYH-R2Z-1" edge="1"><mxGeometry width="50" height="50" relative="1" as="geometry"><mxPoint x="373" y="434" as="sourcePoint"/><mxPoint x="370" y="454" as="targetPoint"/><Array as="points"><mxPoint x="413.5" y="434"/><mxPoint x="413.5" y="454"/></Array></mxGeometry></mxCell><mxCell id="McpQKe_cGmtXAKl3LMGu-3" value="Decode," style="edgeLabel;html=1;align=center;verticalAlign=middle;resizable=0;points=[];" parent="McpQKe_cGmtXAKl3LMGu-2" vertex="1" connectable="0"><mxGeometry x="0.4205" y="1" relative="1" as="geometry"><mxPoint x="38" y="-15" as="offset"/></mxGeometry></mxCell></root></mxGraphModel></diagram></mxfile>